<svg xmlns="http://www.w3.org/2000/svg" xmlns:xlink="http://www.w3.org/1999/xlink" width="100" height="100" viewBox="0 0 100 100"><rect width="100%" height="100%" fill="#ffffff"></rect><g transform="translate(50 50) scale(0.69 0.69) rotate(0) translate(-50 -50)" style="fill:#efa48b"><svg fill="#efa48b" xmlns:x="http://ns.adobe.com/Extensibility/1.0/" xmlns:i="http://ns.adobe.com/AdobeIllustrator/10.0/" xmlns:graph="http://ns.adobe.com/Graphs/1.0/" xmlns="http://www.w3.org/2000/svg" xmlns:xlink="http://www.w3.org/1999/xlink" version="1.1" x="0px" y="0px" viewBox="0 0 100 100" enable-background="new 0 0 100 100" xml:space="preserve"><metadata><sfw xmlns="http://ns.adobe.com/SaveForWeb/1.0/"><slices></slices><sliceSourceBounds width="1549.7" height="1444.2" x="-103.4" y="-1447" bottomLeftOrigin="true"></sliceSourceBounds></sfw></metadata><path d="M96.7,75.7c-0.1,4-2,7.8-5.1,10.3c-1.5,1.3-3.4,2.2-5.3,2.7c-1,0.3-2,0.4-3,0.5l-0.4,0l-0.4,0l-0.6,0l-0.3,0l-0.4-0.1  L80.3,89c-0.4,0-0.6-0.1-0.9-0.2c-0.3-0.1-0.6-0.1-0.9-0.3c-0.6-0.2-1.2-0.4-1.7-0.7c-1.1-0.5-2.2-1.3-3.1-2.1  c-0.9-0.8-1.7-1.8-2.4-2.9c-0.6-1.1-1.2-2.2-1.5-3.3c-0.2-0.6-0.2-1.3-0.3-1.8c0-0.6,0.1-1.1,0.3-1.5c0.4-0.8,0.9-1.3,1.5-1.3  c0.7-0.1,1.2,0.3,1.6,0.9c0.2,0.3,0.4,0.6,0.6,1c0.2,0.4,0.4,0.8,0.6,1.1c0.7,1.4,1.6,2.6,2.8,3.6c1.1,1,2.5,1.6,3.9,2  c2.9,0.7,6.1,0,8.3-2.1c0.7-0.6,1.4-1.4,1.9-2.2c0.4-0.9,0.7-1.9,0.8-2.7l0.1-0.6l0-0.9l0-0.1l0,0l0-0.2l0-0.4l0-0.4l-0.1-0.4  c-0.1-0.9-0.4-1.9-0.8-2.7c-0.4-0.9-0.9-1.7-1.6-2.4c-0.7-0.7-1.4-1.3-2.3-1.8l-0.6-0.4l-0.7-0.3c-0.2-0.1-0.5-0.2-0.7-0.2  c-0.2-0.1-0.5-0.1-0.7-0.2c-0.3-0.1-1-0.2-1.6-0.2h0l-0.1,0l-0.2,0l-0.4,0c-0.3,0-0.5,0-0.8,0c-1,0.1-2,0.3-3,0.8  c-1.6,0.7-3,1.7-4.3,3c-1.3,1.3-2.4,2.7-3.4,4.4c-0.6,1-1.2,1.7-1.9,1.1c-0.3-0.3-0.9-1.1-0.7-1.9l0.1-0.8l0.2-0.7  c0.1-0.5,0.3-0.9,0.4-1.4c0.2-0.4,0.3-0.9,0.6-1.3c0.2-0.4,0.4-0.9,0.7-1.3c1-1.6,2.3-3.1,3.8-4.2c1.5-1.2,3.2-2,5.1-2.5  c0.9-0.3,1.9-0.4,2.8-0.5l0.7,0l0.4,0l0,0l0,0l0.2,0l0.1,0l0.1,0l0.6,0l0.3,0l0.1,0l0.2,0c0.2,0,0.5,0.1,0.7,0.1c0,0,0-0.1,0-0.1  c-0.2-4-0.3-8-1-11.9l-0.3-1.9c-0.9-2.4-1.9-4.7-2.9-7c-1.1-2.3-2.3-4.6-3.8-6.7c-1.3-1.7-2.3-3.7-2.8-6c-0.1-0.7,0-1.4,0.7-1.8  c0.3-0.2,1-0.3,1.3-0.1l0.9,0.8l1,1c0.7,0.6,1.3,1.3,1.9,1.9c0.6,0.6,1.2,1.3,1.8,2c0.5,0.7,1.1,1.4,1.6,2.1c2,2.9,3.6,6.2,4,9.8  c1.5,3.5,2.6,7.3,2.9,11.1c0.1,0.6,0,1.2,0,1.8c0,0.3,0,0.6,0,0.9l-0.1,0.9c-0.1,1.2-0.3,2.4-0.6,3.5c-0.1,0.4-0.2,0.7-0.4,0.9  l0.7,0.4c1.7,0.9,3.1,2.2,4.2,3.7c1.1,1.5,1.9,3.2,2.4,5C97,72.2,97,74,96.7,75.7z M10.7,50.4c0.7,0.4,1.4,0.1,1.9-0.4  c1.8-1.7,2.9-3.5,3.8-5.5c1-2.4,2.3-4.6,3.7-6.7c1.4-2.1,2.9-4.1,4.5-6.1l1.4-1.2c3.1-2.6,6.3-4.8,9.7-7c0,0,0.1-0.1,0.1-0.1  c0.1,0.2,0.2,0.4,0.3,0.7l0.1,0.2l0.1,0.1l0.1,0.3l0.3,0.5l0.1,0.1l0,0.1l0.1,0.1l0,0l0,0l0.2,0.3l0.4,0.6c0.6,0.8,1.2,1.5,1.9,2.1  c1.4,1.3,3,2.3,4.8,3c1.8,0.7,3.7,1,5.6,1c0.5,0,0.9,0,1.4-0.1c0.5,0,0.9-0.1,1.4-0.2c0.5-0.1,0.9-0.2,1.4-0.3l0.7-0.2l0.7-0.3  c0.8-0.3,1.2-1.2,1.3-1.6c0.1-0.9-0.8-1.1-1.9-1.1c-1.9,0-3.8-0.2-5.5-0.6c-1.7-0.5-3.3-1.2-4.8-2.2c-0.9-0.6-1.6-1.3-2.2-2.1  c-0.1-0.2-0.3-0.4-0.4-0.6L41.6,23l-0.1-0.2l0-0.1l0,0c-0.3-0.6-0.6-1.2-0.6-1.5c-0.1-0.2-0.1-0.4-0.2-0.7c0-0.2-0.1-0.5-0.2-0.7  l-0.1-0.7l0-0.7c0-1,0.1-2,0.4-2.9c0.3-0.9,0.7-1.8,1.2-2.6c0.5-0.8,1.2-1.5,1.9-2.1l0.3-0.2l0.3-0.2l0.3-0.2l0.1-0.1l0,0l0.1,0  l0.8-0.5l0.6-0.3c0.8-0.3,1.8-0.6,2.8-0.7c1,0,1.9,0.2,2.8,0.5c2.9,0.9,5.2,3.3,6.1,6.1c0.5,1.4,0.6,2.9,0.4,4.4  c-0.2,1.5-0.8,2.9-1.6,4.2c-0.2,0.4-0.5,0.7-0.7,1.1c-0.2,0.3-0.4,0.7-0.5,1c-0.3,0.6-0.4,1.3,0.1,1.8c0.4,0.5,1,0.7,1.9,0.6  c0.4-0.1,0.9-0.3,1.4-0.5c0.5-0.3,1-0.7,1.4-1.2c0.8-0.9,1.5-1.9,2.1-3c0.6-1.1,1-2.3,1.2-3.5c0.2-1.2,0.4-2.5,0.2-3.7  c0-0.6-0.2-1.2-0.3-1.9c-0.1-0.3-0.2-0.6-0.3-0.9c-0.1-0.3-0.2-0.6-0.3-0.9l-0.3-0.8l-0.2-0.4l-0.2-0.3l-0.3-0.5l-0.2-0.4l-0.2-0.3  c-0.6-0.8-1.2-1.6-1.9-2.3c-1.4-1.4-3.2-2.5-5.1-3.1c-3.8-1.4-8-1-11.5,0.9C41.6,6,40,7,38.7,8.3c-1.3,1.3-2.4,2.9-3,4.6  c-0.7,1.7-1,3.6-1,5.5l0.1,0.8c-0.3,0-0.7,0-1.1,0.1c-1.1,0.4-2.3,0.8-3.4,1.3L29.6,21l-0.8,0.4c-0.5,0.3-1,0.6-1.5,1  c-3.1,2.3-5.8,5.2-8,8.3c-2.8,2.1-4.9,5.2-6.3,8.4c-0.4,0.8-0.7,1.7-1,2.5c-0.3,0.8-0.6,1.7-0.8,2.6c-0.2,0.9-0.5,1.7-0.7,2.6  l-0.3,1.3l-0.3,1.2C9.9,49.6,10.3,50.2,10.7,50.4z M63.7,91.1c-2.3-0.7-4.5-0.8-6.6-0.6c-2.6,0.3-5.2,0.3-7.7,0.1  c-2.5-0.2-5-0.5-7.6-0.9c-0.6-0.2-1.2-0.4-1.8-0.6c-3.8-1.4-7.3-3.2-10.9-5c0,0,0,0,0,0c0.1-0.2,0.3-0.4,0.4-0.6l0.1-0.2l0.1-0.1  l0.2-0.2l0.3-0.5l0.1-0.1l0-0.1l0.1-0.1l0,0l0,0l0.2-0.3l0.3-0.6c0.4-0.9,0.7-1.8,0.9-2.7c0.4-1.9,0.5-3.8,0.3-5.7  c-0.3-1.9-0.9-3.7-1.8-5.3c-0.2-0.4-0.5-0.8-0.8-1.2c-0.3-0.4-0.6-0.8-0.9-1.1c-0.3-0.4-0.6-0.7-1-1l-0.5-0.5l-0.6-0.5  c-0.7-0.6-1.6-0.5-2-0.3c-0.8,0.3-0.6,1.2,0,2.2c1,1.7,1.7,3.4,2.2,5.1c0.5,1.7,0.6,3.5,0.5,5.2c-0.1,1-0.4,2-0.8,3  c-0.1,0.2-0.2,0.5-0.3,0.7l-0.2,0.3l-0.1,0.2l0,0.1l0,0c-0.3,0.5-0.7,1.1-1,1.3c-0.1,0.2-0.3,0.3-0.5,0.5c-0.2,0.2-0.4,0.4-0.6,0.5  l-0.6,0.5l-0.6,0.4c-0.9,0.5-1.8,0.9-2.7,1.1C18.8,84,17.8,84,16.9,84c-1-0.1-1.9-0.3-2.8-0.6l-0.3-0.1l-0.3-0.2l-0.3-0.2l-0.2-0.1  l0,0l-0.1,0l-0.8-0.5l-0.5-0.4c-0.7-0.5-1.4-1.3-2-2c-0.5-0.9-0.8-1.8-1-2.7c-0.6-3,0.3-6.1,2.3-8.3c1-1.1,2.2-2,3.6-2.5  c1.4-0.6,2.9-0.8,4.5-0.7c0.4,0,0.9,0.1,1.3,0.1c0.4,0,0.8,0,1.1,0c0.7-0.1,1.3-0.3,1.6-1c0.2-0.6,0.1-1.3-0.4-2  c-0.3-0.3-0.7-0.7-1.1-1c-0.5-0.2-1.1-0.5-1.7-0.7c-1.2-0.3-2.4-0.4-3.6-0.3c-1.2,0.1-2.5,0.3-3.6,0.7C11.2,62,10,62.5,9,63.2  c-0.5,0.3-1,0.8-1.5,1.2c-0.2,0.2-0.4,0.4-0.7,0.7c-0.2,0.2-0.4,0.4-0.6,0.7l-0.5,0.7l-0.2,0.3L5.3,67L5,67.6l-0.2,0.4l-0.2,0.3  c-0.5,0.9-0.8,1.8-1.1,2.8c-0.5,2-0.6,4-0.2,6C4,81,6.4,84.5,9.8,86.6c1.3,1.1,2.9,2,4.7,2.5c1.8,0.5,3.6,0.6,5.5,0.4  c1.9-0.3,3.7-0.9,5.3-1.9l0.6-0.4c0.1,0.3,0.3,0.5,0.6,0.8c0.9,0.8,1.8,1.6,2.8,2.3c1,0.7,2,1.3,3.1,1.8c3.5,1.6,7.4,2.5,11.2,2.9  c3.3,1.4,6.9,1.7,10.5,1.3c0.9-0.1,1.8-0.2,2.7-0.4c0.9-0.2,1.8-0.4,2.6-0.6c0.9-0.2,1.7-0.4,2.6-0.7l1.3-0.4l1.2-0.4  c0.3-0.1,0.5-0.7,0.5-1.1C65,91.8,64.4,91.3,63.7,91.1z"></path></svg></g></svg>